<?xml version="1.0"?>
<svg xmlns="http://www.w3.org/2000/svg" xmlns:xlink="http://www.w3.org/1999/xlink" xmlns:svgjs="http://svgjs.com/svgjs" version="1.1" width="512" height="512" x="0" y="0" viewBox="0 0 385.419 385.419" style="enable-background:new 0 0 512 512" xml:space="preserve" class=""><g>
<g xmlns="http://www.w3.org/2000/svg">
	<path d="M188.998,331.298l-0.231-107.449l-92.494-53.907L3.946,223.654l0.225,108.29l92.102,53.475L188.998,331.298z    M105.656,358.292l0.165-75.232l64.289-37.558l0.165,75.067L105.656,358.292z M96.26,191.586l64.603,37.658l-64.384,37.606   L31.874,229.05L96.26,191.586z M22.703,245.356l64.411,37.691l-0.164,75.335l-64.092-37.217L22.703,245.356z" fill="#ffffff" data-original="#000000" style="" class=""/>
	<path d="M288.748,169.948l-92.324,53.706l0.231,108.29l92.104,53.475l92.714-54.121l-0.231-107.449L288.748,169.948z    M288.735,191.586l64.605,37.658l-64.386,37.606l-64.606-37.801L288.735,191.586z M215.179,245.356l64.404,37.691l-0.164,75.335   l-64.076-37.217L215.179,245.356z M298.137,358.292l0.159-75.232l64.289-37.558l0.164,75.067L298.137,358.292z" fill="#ffffff" data-original="#000000" style="" class=""/>
	<path d="M285.216,53.892L192.719,0l-92.324,53.697l0.222,108.295l92.102,53.479l92.717-54.121L285.216,53.892z M192.707,21.635   l64.609,37.649l-64.384,37.619l-64.609-37.811L192.707,21.635z M119.149,75.401l64.411,37.698l-0.161,75.335l-64.095-37.211   L119.149,75.401z M202.099,188.343l0.162-75.234l64.292-37.564l0.164,75.073L202.099,188.343z" fill="#ffffff" data-original="#000000" style="" class=""/>
</g>
<g xmlns="http://www.w3.org/2000/svg">
</g>
<g xmlns="http://www.w3.org/2000/svg">
</g>
<g xmlns="http://www.w3.org/2000/svg">
</g>
<g xmlns="http://www.w3.org/2000/svg">
</g>
<g xmlns="http://www.w3.org/2000/svg">
</g>
<g xmlns="http://www.w3.org/2000/svg">
</g>
<g xmlns="http://www.w3.org/2000/svg">
</g>
<g xmlns="http://www.w3.org/2000/svg">
</g>
<g xmlns="http://www.w3.org/2000/svg">
</g>
<g xmlns="http://www.w3.org/2000/svg">
</g>
<g xmlns="http://www.w3.org/2000/svg">
</g>
<g xmlns="http://www.w3.org/2000/svg">
</g>
<g xmlns="http://www.w3.org/2000/svg">
</g>
<g xmlns="http://www.w3.org/2000/svg">
</g>
<g xmlns="http://www.w3.org/2000/svg">
</g>
</g></svg>
