<?xml version="1.0" standalone="no"?>
<!DOCTYPE svg PUBLIC "-//W3C//DTD SVG 20010904//EN"
 "http://www.w3.org/TR/2001/REC-SVG-20010904/DTD/svg10.dtd">
<svg version="1.0" xmlns="http://www.w3.org/2000/svg"
 width="700.000000pt" height="700.000000pt" viewBox="0 0 700.000000 700.000000"
 preserveAspectRatio="xMidYMid meet">
<metadata>
Created by potrace 1.14, written by Peter Selinger 2001-2017
</metadata>
<g transform="translate(0.000000,700.000000) scale(0.100000,-0.100000)"
fill="#000000" stroke="none">
<path d="M3278 6995 c-1 -1 -41 -5 -88 -9 -47 -4 -101 -9 -120 -12 -139 -19
-252 -40 -360 -66 -69 -16 -135 -31 -147 -34 -13 -2 -78 -23 -145 -45 -604
-201 -1109 -532 -1534 -1005 -221 -245 -445 -591 -569 -874 -25 -58 -50 -114
-55 -125 -45 -93 -150 -427 -176 -560 -2 -11 -10 -54 -19 -95 -29 -147 -35
-192 -52 -370 -15 -162 -8 -591 12 -711 2 -13 6 -46 9 -74 9 -78 22 -152 51
-285 20 -95 98 -366 115 -400 5 -8 25 -60 45 -115 62 -165 251 -535 312 -610
4 -6 29 -42 54 -80 220 -335 582 -693 939 -929 177 -117 208 -135 360 -213
346 -177 729 -298 1099 -349 25 -3 57 -8 71 -10 163 -25 682 -25 842 1 13 2
46 7 73 10 71 10 87 13 115 18 14 3 43 8 65 12 115 21 314 74 455 122 558 189
1087 540 1480 982 36 41 70 79 75 85 62 67 240 317 320 450 179 298 346 717
411 1031 16 75 54 300 60 350 4 33 9 76 11 95 8 71 10 517 3 595 -17 172 -22
220 -25 225 -2 3 -6 30 -10 60 -3 30 -10 71 -15 90 -5 19 -12 51 -15 70 -13
75 -67 275 -106 392 -349 1039 -1171 1861 -2209 2207 -113 38 -333 97 -435
117 -22 4 -42 8 -45 9 -3 0 -30 5 -60 9 -30 4 -64 10 -75 12 -11 2 -49 6 -85
10 -36 3 -78 8 -95 11 -33 5 -531 13 -537 8z m597 -456 c91 -12 138 -19 169
-25 11 -2 35 -7 51 -9 70 -13 242 -57 332 -86 575 -184 1089 -537 1459 -1001
36 -46 72 -91 80 -101 31 -39 134 -197 188 -289 162 -277 293 -629 351 -943
10 -49 18 -97 20 -105 22 -115 34 -281 35 -465 1 -192 -7 -299 -36 -505 -4
-28 -32 -165 -49 -240 -1 -8 -17 -62 -34 -120 -61 -208 -135 -395 -234 -582
l-51 -98 -245 0 -246 1 -43 42 -42 43 -3 1534 -2 1535 -23 57 c-47 117 -143
213 -260 260 l-57 23 -1027 3 c-566 1 -1028 4 -1028 6 0 5 28 75 49 121 10 22
64 148 120 280 56 132 110 258 120 280 10 22 51 117 91 210 40 94 77 175 82
182 11 13 94 10 233 -8z m-718 -6 c-3 -5 -89 -204 -191 -443 -103 -239 -191
-444 -196 -455 -5 -11 -21 -49 -36 -85 -15 -36 -30 -68 -33 -72 -3 -4 -215 -8
-471 -10 -459 -3 -466 -4 -522 -26 -116 -47 -213 -143 -260 -260 l-23 -57 -2
-1535 -1 -1535 -46 -42 -45 -43 -244 0 -244 0 -61 119 c-128 251 -243 571
-277 771 -3 19 -8 42 -10 50 -12 44 -40 250 -50 370 -6 80 -7 355 -1 430 6 65
17 171 21 200 2 14 6 43 10 65 142 970 793 1848 1690 2280 176 85 422 176 568
211 9 2 26 6 37 9 32 8 63 15 90 20 14 2 50 9 80 15 30 6 75 14 100 17 25 2
47 7 49 9 8 7 72 4 68 -3z m-572 -1550 l40 -47 0 -1483 0 -1483 -382 0 -383 0
0 1485 0 1485 35 37 c19 20 35 41 35 45 0 4 138 8 308 8 l307 -1 40 -46z
m1311 1 l41 -47 0 -1483 0 -1484 -437 0 -437 0 0 1484 0 1483 41 47 41 46 354
0 355 0 42 -46z m1202 1 l42 -45 0 -1485 0 -1485 -383 0 -382 0 0 1483 0 1483
40 47 40 46 300 1 300 0 43 -45z m714 -3492 c-51 -64 -202 -216 -294 -296
-361 -314 -774 -534 -1229 -656 -117 -31 -130 -34 -234 -53 -447 -80 -886 -64
-1320 47 -404 104 -782 290 -1120 552 -138 107 -345 304 -427 406 l-30 37
2342 0 2342 0 -30 -37z"/>
</g>
</svg>
